<?xml version="1.0" encoding="utf-8"?>
<!-- Svg Vector Icons : http://www.onlinewebfonts.com/icon -->
<!DOCTYPE svg PUBLIC "-//W3C//DTD SVG 1.1//EN" "http://www.w3.org/Graphics/SVG/1.1/DTD/svg11.dtd">
<svg version="1.1" xmlns="http://www.w3.org/2000/svg" xmlns:xlink="http://www.w3.org/1999/xlink" x="0px" y="0px" viewBox="0 0 1000 1000" enable-background="new 0 0 1000 1000" xml:space="preserve">
<metadata> Svg Vector Icons : http://www.onlinewebfonts.com/icon </metadata>
<g><path d="M500,307.5c-135.3,0-245,109.7-245,245c0,135.3,109.7,245,245,245s245-109.7,245-245C745,417.2,635.3,307.5,500,307.5L500,307.5z M500,710c-86.9,0-157.5-70.7-157.5-157.5c0-86.9,70.7-157.5,157.5-157.5c86.8,0,157.5,70.6,157.5,157.5C657.5,639.3,586.8,710,500,710L500,710z"/><path d="M815,307.5c-19.3,0-35,15.7-35,35c0,19.3,15.7,35,35,35c19.3,0,35-15.7,35-35C850,323.2,834.3,307.5,815,307.5L815,307.5z"/><path d="M920,202.5H728.7l-59.6-89.4c-6.5-9.7-17.4-15.6-29.1-15.6H360c-11.7,0-22.6,5.8-29.1,15.6l-59.6,89.4H80c-38.6,0-70,31.4-70,70v560c0,38.6,31.4,70,70,70h840c38.6,0,70-31.4,70-70v-560C990,233.9,958.6,202.5,920,202.5L920,202.5z M80,832.5v-560h210c11.7,0,22.6-5.8,29.1-15.6l59.6-89.4h242.5l59.6,89.4c6.5,9.7,17.4,15.6,29.1,15.6h210l0.1,560H80L80,832.5z"/></g>
</svg>

